<?xml version="1.0" standalone="no"?><!DOCTYPE svg PUBLIC "-//W3C//DTD SVG 1.1//EN" "http://www.w3.org/Graphics/SVG/1.1/DTD/svg11.dtd"><svg t="1547035924587" class="icon" style="" viewBox="0 0 1024 1024" version="1.1" xmlns="http://www.w3.org/2000/svg" p-id="3603" xmlns:xlink="http://www.w3.org/1999/xlink" width="200" height="200"><defs><style type="text/css"></style></defs><path d="M208.19456 904.96512c0 28.27264-22.92224 51.2-51.2 51.2h-38.4c-28.27776 0-51.2-22.92736-51.2-51.2V110.08c0-28.27776 22.92224-51.2 51.2-51.2h38.4c28.27776 0 51.2 22.92224 51.2 51.2v794.88512zM956.99456 904.96512c0 28.27264-22.92224 51.2-51.2 51.2h-38.4c-28.27776 0-51.2-22.92736-51.2-51.2V110.08c0-28.27776 22.92224-51.2 51.2-51.2h38.4c28.27776 0 51.2 22.92224 51.2 51.2v794.88512z" fill="#956134" p-id="3604"></path><path d="M956.61056 676.37248V346.56256c0-134.3744-108.928-243.30752-243.30752-243.30752H310.31808c-134.37952 0-243.30752 108.93312-243.30752 243.30752v329.80992h889.6z" fill="#BF886D" p-id="3605"></path><path d="M859.97056 692.25984c0 56.5504-45.84448 102.4-102.4 102.4h-491.52c-56.55552 0-102.4-45.8496-102.4-102.4V343.04c0-56.55552 45.84448-102.4 102.4-102.4h491.52c56.55552 0 102.4 45.84448 102.4 102.4v349.21984z" fill="#EFEFEF" p-id="3606"></path><path d="M757.57056 240.64h-245.76v554.01984h245.76c56.55552 0 102.4-45.8496 102.4-102.4V343.04c0-56.55552-45.84448-102.4-102.4-102.4z" fill="#DCDDDD" p-id="3607"></path><path d="M956.21632 685.65504c0.24064-6.52288 0.39424-115.6096 0.39424-122.58304 0-71.22432-199.14752-128.96256-444.8-128.96256s-444.8 57.73824-444.8 128.96256c0 6.96832 0.1536 116.04992 0.39424 122.58304h888.81152z" fill="#D84F62" p-id="3608"></path><path d="M956.61056 631.2448c0 11.95008-0.22016 108.76416-0.22016 108.76416H67.01056V631.2448c0-71.22432 199.14752-128.96256 444.8-128.96256s444.8 57.73824 444.8 128.96256z" fill="#E7293D" p-id="3609"></path><path d="M67.01056 677.3248h889.6v128.85504H67.01056z" fill="#BF886D" p-id="3610"></path><path d="M905.58464 43.52h-38.4c-34.41152 0-62.81216 26.25024-66.21696 59.78112a256.23552 256.23552 0 0 0-87.84384-15.39072h-402.9952a256.68608 256.68608 0 0 0-87.16288 15.13984C219.43808 69.64224 191.10912 43.52 156.78464 43.52h-38.4c-36.70016 0-66.56 29.85984-66.56 66.56v222.88896c-0.23552 4.2496-0.35328 8.69888-0.35328 13.60384v345.1392h0.35328V904.96c0 36.70016 29.85984 66.56 66.56 66.56h38.4c36.70016 0 66.56-29.85984 66.56-66.56v-83.4048h577.28v83.4048c0 36.70016 29.85984 66.56 66.56 66.56h38.4c36.70016 0 66.56-29.85984 66.56-66.56V110.08c0-36.70016-29.85984-66.56-66.56-66.56z m-74.24 66.56c0-19.7632 16.08192-35.84 35.84-35.84h38.4c19.75808 0 35.84 16.0768 35.84 35.84v115.23072c-0.1536-0.29184-0.32256-0.57344-0.48128-0.86016-0.95744-1.78176-1.95072-3.53792-2.944-5.29408-0.55296-0.9728-1.09056-1.95584-1.65376-2.92352a283.48928 283.48928 0 0 0-3.55328-5.86752c-0.45056-0.72192-0.88064-1.4592-1.33632-2.176a261.51936 261.51936 0 0 0-10.79296-15.73888c-0.22016-0.29696-0.45056-0.58368-0.67072-0.87552a252.3136 252.3136 0 0 0-5.09952-6.60992c-0.53248-0.67072-1.09568-1.32608-1.6384-1.9968a270.592 270.592 0 0 0-4.4032-5.28896c-0.68096-0.78848-1.3824-1.55648-2.06848-2.33984a246.016 246.016 0 0 0-4.23424-4.71552c-0.77312-0.83968-1.57184-1.65888-2.3552-2.4832a260.55168 260.55168 0 0 0-4.224-4.35712c-0.83968-0.8448-1.69472-1.67424-2.54976-2.5088a248.832 248.832 0 0 0-18.72384-16.59392 217.6 217.6 0 0 0-7.60832-5.87776 215.63904 215.63904 0 0 0-7.86944-5.62176c-1.00864-0.69632-2.01728-1.39776-3.03616-2.07872a263.96672 263.96672 0 0 0-5.11488-3.29728c-0.9984-0.63488-1.9968-1.28-3.01056-1.90464-1.8176-1.11616-3.67104-2.19136-5.52448-3.26656-0.94208-0.54272-1.86368-1.10592-2.81088-1.6384a252.30336 252.30336 0 0 0-6.47168-3.49184c-0.63488-0.3328-1.2544-0.6912-1.8944-1.024V110.08z m-118.2208 8.5504c33.7408 0 66.15552 7.17824 96.36352 21.34528 79.92832 37.2992 131.57888 118.39488 131.57888 206.59712v161.96608c-0.70144-0.57856-1.47968-1.14688-2.20672-1.72032-0.84992-0.67072-1.69472-1.34656-2.57536-2.01728a157.06624 157.06624 0 0 0-5.05344-3.66592c-0.80896-0.56832-1.59232-1.14176-2.42688-1.70496a207.24736 207.24736 0 0 0-7.59296-4.88448c-0.18944-0.11264-0.3584-0.2304-0.54272-0.34304a228.97664 228.97664 0 0 0-8.93952-5.13024c-0.88064-0.48128-1.81248-0.95744-2.71872-1.4336a238.53568 238.53568 0 0 0-10.50112-5.2992 320.47616 320.47616 0 0 0-10.74176-4.9152 402.8928 402.8928 0 0 0-7.30112-3.07712c-1.32096-0.5376-2.61632-1.08544-3.95776-1.61792-0.47104-0.18944-0.91136-0.37888-1.38752-0.56832V343.04c0-38.42048-18.82112-74.496-50.29376-96.48128A116.6336 116.6336 0 0 0 757.36064 225.28h-368.64a15.36 15.36 0 1 0 0 30.72h107.52v162.8416c-1.05472 0.01024-2.10432 0.04096-3.15904 0.0512-3.13344 0.03584-6.26176 0.09728-9.39008 0.1536-3.80416 0.06656-7.60832 0.13824-11.40224 0.23552a1861.17632 1861.17632 0 0 0-20.66944 0.6656c-3.11296 0.12288-6.21568 0.26112-9.3184 0.39936a1347.51744 1347.51744 0 0 0-20.38272 1.05472 1481.65632 1481.65632 0 0 0-20.17792 1.32096 1448.99072 1448.99072 0 0 0-39.41376 3.4304 1529.4976 1529.4976 0 0 0-19.2512 2.10432c-3.46112 0.40448-6.8864 0.83456-10.31168 1.26464-2.8672 0.36352-5.7344 0.72192-8.576 1.09568-3.42016 0.45568-6.79424 0.93184-10.17344 1.41312-2.7904 0.39936-5.59104 0.78848-8.35584 1.2032-3.36896 0.50176-6.69696 1.03424-10.02496 1.5616-2.69824 0.43008-5.41696 0.84992-8.0896 1.29536-3.34848 0.55808-6.65088 1.14688-9.95328 1.73056-2.57536 0.45568-5.1712 0.90112-7.71584 1.37216-3.3536 0.61952-6.65088 1.27488-9.95328 1.92-2.432 0.47616-4.87936 0.93696-7.28064 1.42848-3.39968 0.69632-6.72768 1.42336-10.07104 2.14528-2.22208 0.48128-4.48 0.9472-6.67648 1.43872-3.66592 0.82432-7.2448 1.68448-10.8288 2.54464-1.792 0.42496-3.61984 0.83968-5.39136 1.27488-5.31968 1.31072-10.55744 2.6624-15.68768 4.04992-8.21248 2.21184-16.32256 4.59776-24.28928 7.10656-0.29696 0.09216-0.60416 0.16896-0.90112 0.26112V343.04a87.0912 87.0912 0 0 1 37.89312-71.82848 86.28224 86.28224 0 0 1 49.152-15.21152h20.48a15.36 15.36 0 1 0 0-30.72h-20.48a116.79744 116.79744 0 0 0-66.53952 20.61312A117.76 117.76 0 0 0 148.08064 343.04v129.11104c-0.32256 0.12288-0.6144 0.256-0.93696 0.37888-1.44384 0.56832-2.82624 1.152-4.23936 1.72544-2.22208 0.90624-4.4288 1.81248-6.56896 2.73408-1.43872 0.61952-2.83648 1.24416-4.23936 1.8688a269.18912 269.18912 0 0 0-9.99424 4.64896 331.4944 331.4944 0 0 0-9.30304 4.74112 228.4544 228.4544 0 0 0-5.27872 2.92352c-1.12128 0.64-2.25792 1.27488-3.34848 1.91488a194.8672 194.8672 0 0 0-5.21216 3.20512c-0.9216 0.57856-1.8688 1.152-2.75968 1.73056-2.09408 1.37216-4.096 2.75968-6.04672 4.15744-0.41472 0.29696-0.86528 0.5888-1.27488 0.88576-2.20672 1.6128-4.32128 3.23584-6.32832 4.88448V333.85984c0.17408-3.19488 0.53248-6.34368 0.83968-9.50784 0.19456-2.03264 0.30208-4.09088 0.54784-6.11328 0.39424-3.20512 0.9728-6.36416 1.50528-9.52832 0.32256-1.95584 0.55808-3.9424 0.94208-5.88288 0.6144-3.18976 1.408-6.31296 2.16064-9.45664 0.45056-1.87392 0.80384-3.77856 1.30048-5.63712 0.83456-3.15392 1.84832-6.2464 2.82112-9.34912 0.55296-1.792 1.02912-3.61472 1.62816-5.38624 1.07008-3.13856 2.304-6.20544 3.5072-9.28768 0.65024-1.67424 1.21856-3.38944 1.90976-5.0432 1.29536-3.11808 2.7648-6.15424 4.19328-9.20576 0.73728-1.55136 1.3824-3.1488 2.14528-4.6848 1.4848-2.97984 3.12832-5.86752 4.74112-8.77056 0.85504-1.536 1.62304-3.11808 2.51392-4.63872 1.66912-2.86208 3.50208-5.62176 5.2992-8.40704 0.95744-1.47968 1.82784-3.01056 2.82112-4.46976 1.86368-2.74944 3.88608-5.39136 5.86752-8.05888 1.0496-1.40288 2.0224-2.8672 3.0976-4.2496 2.00704-2.56512 4.15744-5.01248 6.272-7.49056 1.18272-1.39264 2.29888-2.8416 3.52256-4.20352 2.08384-2.32448 4.30592-4.5312 6.48704-6.76864 1.37728-1.41312 2.67776-2.88768 4.096-4.26496 2.16576-2.11456 4.46464-4.096 6.71744-6.12352 1.55136-1.39264 3.03104-2.85184 4.61824-4.20864 2.3296-1.98656 4.79232-3.84 7.20896-5.7344 1.62304-1.27488 3.18464-2.62144 4.84864-3.85536 2.4832-1.83808 5.08928-3.53792 7.65952-5.28384 1.71008-1.16224 3.35872-2.40128 5.10976-3.52256 2.57024-1.64864 5.25824-3.1488 7.9104-4.70016 1.84832-1.08032 3.64032-2.24256 5.52448-3.28192a229.20704 229.20704 0 0 1 13.4912-6.8096c0.19968-0.09728 0.384-0.2048 0.58368-0.29696l0.02048-0.01024c30.05952-13.93152 62.24384-20.99712 95.67744-20.99712h402.98496z m91.19232 331.51488c-1.72032-0.42496-3.5072-0.82944-5.23776-1.24416-3.64544-0.87552-7.28064-1.75616-11.00288-2.59584-2.16064-0.49152-4.38272-0.9472-6.56896-1.42336-3.3792-0.73728-6.74304-1.47456-10.1888-2.18112-2.37056-0.4864-4.80256-0.9472-7.19872-1.41824-3.33824-0.65536-6.67136-1.32096-10.06592-1.95072-2.52416-0.46592-5.0944-0.91136-7.64928-1.36704-3.33824-0.59392-6.67648-1.18784-10.0608-1.75616-2.64192-0.44032-5.3248-0.86016-7.99744-1.28512-3.37408-0.5376-6.74816-1.08032-10.16832-1.59232-2.73408-0.4096-5.504-0.79872-8.26368-1.19296-3.42016-0.4864-6.8352-0.9728-10.2912-1.4336a1561.69728 1561.69728 0 0 0-18.93376-2.37568c-2.90816-0.34304-5.8368-0.6656-8.76544-0.98816a1103.76448 1103.76448 0 0 0-19.49184-2.00704 1345.6896 1345.6896 0 0 0-50.77504-3.90656 1379.04128 1379.04128 0 0 0-41.088-1.84832c-3.18464-0.1024-6.35904-0.19968-9.55392-0.2816-3.75808-0.09728-7.53152-0.16384-11.30496-0.2304-3.18976-0.05632-6.37952-0.11776-9.58464-0.1536-1.05472-0.01024-2.10432-0.04096-3.15904-0.0512V256h230.4c17.98656 0 35.2 5.42208 49.82784 15.71328A87.0656 87.0656 0 0 1 844.40576 343.04v118.31296l-0.55296-0.16896c-2.7136-0.85504-5.49376-1.6896-8.27392-2.51392-1.152-0.34304-2.27328-0.70144-3.44064-1.03936a597.504 597.504 0 0 0-12.1088-3.40992 744.09984 744.09984 0 0 0-15.71328-4.07552zM82.54464 110.08c0-19.7632 16.08192-35.84 35.84-35.84h38.4c19.75808 0 35.84 16.0768 35.84 35.84v6.00064c-0.81408 0.41472-1.60256 0.86016-2.4064 1.28512-1.86368 0.9728-3.73248 1.95072-5.56544 2.9696-1.1008 0.60928-2.18624 1.24928-3.28192 1.87392-1.64352 0.94208-3.28704 1.88928-4.90496 2.8672-1.13664 0.68096-2.24768 1.3824-3.36896 2.07872a252.90752 252.90752 0 0 0-7.95648 5.16096c-1.50528 1.01376-2.9952 2.04288-4.47488 3.09248-1.08032 0.76288-2.16064 1.52576-3.2256 2.30912-1.4848 1.08544-2.95424 2.19136-4.41344 3.30752-1.01376 0.77312-2.03264 1.54112-3.03616 2.3296-1.52064 1.19296-3.01056 2.41664-4.50048 3.64032-0.90624 0.7424-1.81248 1.47456-2.70848 2.23232a260.4544 260.4544 0 0 0-5.05856 4.42368c-0.62976 0.5632-1.28 1.11104-1.90464 1.68448a238.8992 238.8992 0 0 0-6.72768 6.34368c-0.45056 0.44032-0.88576 0.896-1.3312 1.34144-1.7408 1.72544-3.46624 3.46112-5.15072 5.23264-0.74752 0.78848-1.47456 1.59232-2.21696 2.38592-1.3568 1.4592-2.70336 2.92352-4.02432 4.41344-0.80384 0.90624-1.5872 1.82784-2.37568 2.74432a239.54432 239.54432 0 0 0-14.90944 19.04128c-0.71168 0.9984-1.42336 2.00192-2.11968 3.01056-1.08544 1.57696-2.14528 3.1744-3.19488 4.77696-0.63488 0.96256-1.27488 1.92512-1.89952 2.90304a232.9088 232.9088 0 0 0-3.30752 5.376c-0.49664 0.82432-1.00864 1.63328-1.49504 2.4576-1.50528 2.56-2.9696 5.1456-4.38272 7.76192-0.04608 0.0768-0.09216 0.14848-0.128 0.22528V110.08z m110.08 794.88c0 19.75808-16.08192 35.84-35.84 35.84h-38.4c-19.75808 0-35.84-16.08192-35.84-35.84v-83.4048h110.08v83.4048z m30.72-114.1248h-140.8v-98.1504h600.32a15.36 15.36 0 0 0 15.36-15.36c0-0.16384-0.04608-0.32256-0.0512-0.4864 0.00512-0.16896 0.0512-0.32256 0.0512-0.49152a15.36 15.36 0 0 0-15.36-15.36H82.54464v-101.53984c0.09728-0.60416 0.25088-1.20832 0.38912-1.8176 0.14848-0.64512 0.2816-1.29024 0.4864-1.94048 0.20992-0.67072 0.49664-1.35168 0.76288-2.02752 0.256-0.64512 0.4864-1.28512 0.78848-1.93536 0.32256-0.68608 0.73216-1.37728 1.11104-2.06336 0.35328-0.64 0.68096-1.28 1.08544-1.92 0.44544-0.70656 0.96256-1.408 1.46432-2.11456 0.44544-0.62976 0.86528-1.25952 1.36192-1.88928 0.55808-0.72192 1.2032-1.44384 1.82784-2.16576 0.53248-0.61952 1.02912-1.23392 1.60256-1.84832 0.69632-0.7424 1.46432-1.4848 2.22208-2.2272 0.60416-0.59904 1.17248-1.19296 1.8176-1.792 0.82944-0.768 1.7408-1.536 2.6368-2.29888 0.6656-0.56832 1.29536-1.14176 1.9968-1.71008 0.98304-0.80384 2.05824-1.60256 3.11296-2.4064 0.70144-0.53248 1.36192-1.05984 2.08896-1.5872 1.17248-0.85504 2.43712-1.69984 3.69152-2.54976 0.69632-0.47104 1.3568-0.95232 2.07872-1.41824 1.38752-0.90624 2.86208-1.80736 4.33664-2.70336 0.67584-0.4096 1.3056-0.82432 2.00192-1.23392 1.6384-0.9728 3.36896-1.94048 5.10976-2.90304 0.59392-0.32768 1.15712-0.6656 1.7664-0.9984 1.9456-1.05472 3.98336-2.0992 6.04672-3.14368 0.47104-0.23552 0.90624-0.47616 1.3824-0.7168a299.008 299.008 0 0 1 7.31648-3.50208l0.62976-0.30208a360.89856 360.89856 0 0 1 27.0336-11.0336 555.776 555.776 0 0 1 43.31008-13.5424c81.45408-22.0416 187.85792-34.18112 299.60704-34.18112 112.24064 0 218.9056 12.2112 300.37504 34.38592 15.08352 4.07552 29.39904 8.56576 42.5472 13.33248l0.13824 0.0512c54.10304 19.75808 86.41024 44.34432 86.41024 65.792l-0.06656 42.31168-0.12288 41.02656-0.00512 1.50528v0.4096l-0.06656 12.69248h-140.1856v0.9728h-5.12a15.36 15.36 0 1 0 0 30.72h145.56672v98.1504H223.34464z m718.08 114.1248c0 19.75808-16.08192 35.84-35.84 35.84h-38.4c-19.75808 0-35.84-16.08192-35.84-35.84v-83.4048h110.08v83.4048z" p-id="3611"></path></svg>